<svg viewBox="17 19 92 105" fill="none" xmlns="http://www.w3.org/2000/svg">
<path d="M61.9713 30.0225L55.2822 20.0819H37.6721V39.963H55.2822L61.9713 30.0225Z" fill="#00CAF9"/>
<path fill-rule="evenodd" clip-rule="evenodd" d="M60.3931 20H75.0582C87.7167 21.072 108.312 30.6741 108.312 56.5384L107.833 123.526H84.0218L84.1586 112.167C76.4267 120.082 54.4626 131.845 32.9775 118.12C24.539 112.729 17.078 99.714 21.1401 82.2659C27.1616 56.4016 64.3618 54.212 84.0679 58.1122C85.4135 51.7487 82.6994 39.2135 60.2563 39.9798L67.0987 29.9899L60.3931 20ZM78.0253 76.132C63.7387 75.9818 50.7148 75.8449 45.8187 82.9501C42.0326 89.3363 41.987 102.314 59.1153 104.298C68.7175 104.64 85.0942 100.946 84.3415 76.1761C82.2234 76.1761 80.1109 76.1539 78.0253 76.132Z" fill="#064ECC"/>
</svg>
