<svg width="129" height="607" viewBox="0 0 129 607" fill="none" xmlns="http://www.w3.org/2000/svg">
<rect width="129" height="607" fill="#1E1E1E"/>
<g id="Logo">
<rect x="-119.5" y="-108.5" width="843" height="923" rx="39.5" stroke="#9747FF" stroke-width="5" stroke-dasharray="20 20"/>
<g id="Logo A">
<rect x="0.5" y="0.5" width="127.312" height="605.148" rx="4.5" stroke="#9747FF" stroke-dasharray="10 5"/>
<g id="Property 1=Branco">
<path id="Vector 6" d="M62.2576 184.735L55.5685 174.795H37.9585V194.676H55.5685L62.2576 184.735Z" fill="#00CAF9"/>
<path id="Subtract" fill-rule="evenodd" clip-rule="evenodd" d="M60.3931 174.713H75.0582C87.7167 175.785 108.312 185.387 108.312 211.251L107.833 278.238H84.0218L84.1586 266.88C76.4267 274.794 54.4626 286.558 32.9775 272.833C24.539 267.442 17.078 254.427 21.1401 236.979C27.1616 211.114 64.3618 208.925 84.0679 212.825C85.4135 206.462 82.6994 193.926 60.2563 194.693L67.0987 184.703L60.3931 174.713ZM78.0253 230.845C63.7387 230.695 50.7148 230.558 45.8187 237.663C42.0326 244.049 41.987 257.027 59.1153 259.011C68.7175 259.353 85.0942 255.658 84.3415 230.889C82.2234 230.889 80.1109 230.867 78.0253 230.845Z" fill="white"/>
</g>
<g id="Property 1=Mono Preto">
<path id="Vector 6_2" d="M62.2576 491.735L55.5685 481.795H37.9585V501.676H55.5685L62.2576 491.735Z" fill="#1D1D1D"/>
<path id="Subtract_2" fill-rule="evenodd" clip-rule="evenodd" d="M60.3931 481.713H75.0582C87.7167 482.785 108.312 492.387 108.312 518.251L107.833 585.238H84.0218L84.1586 573.88C76.4267 581.794 54.4626 593.558 32.9775 579.833C24.539 574.442 17.078 561.427 21.1401 543.979C27.1616 518.114 64.3618 515.925 84.0679 519.825C85.4135 513.462 82.6994 500.926 60.2563 501.693L67.0987 491.703L60.3931 481.713ZM78.0253 537.845C63.7387 537.695 50.7148 537.558 45.8187 544.663C42.0326 551.049 41.987 564.027 59.1153 566.011C68.7175 566.353 85.0942 562.658 84.3415 537.889C82.2234 537.889 80.1109 537.867 78.0253 537.845Z" fill="#1D1D1D"/>
</g>
<g id="Property 1=Azul">
<path id="Vector 5" d="M61.9713 30.0225L55.2822 20.0819H37.6721V39.963H55.2822L61.9713 30.0225Z" fill="#00CAF9"/>
<path id="Subtract_3" fill-rule="evenodd" clip-rule="evenodd" d="M60.3931 20H75.0582C87.7167 21.072 108.312 30.6741 108.312 56.5384L107.833 123.526H84.0218L84.1586 112.167C76.4267 120.082 54.4626 131.845 32.9775 118.12C24.539 112.729 17.078 99.714 21.1401 82.2659C27.1616 56.4016 64.3618 54.212 84.0679 58.1122C85.4135 51.7487 82.6994 39.2135 60.2563 39.9798L67.0987 29.9899L60.3931 20ZM78.0253 76.132C63.7387 75.9818 50.7148 75.8449 45.8187 82.9501C42.0326 89.3363 41.987 102.314 59.1153 104.298C68.7175 104.64 85.0942 100.946 84.3415 76.1761C82.2234 76.1761 80.1109 76.1539 78.0253 76.132Z" fill="#064ECC"/>
</g>
<g id="Property 1=Mono Branco">
<path id="Vector 5_2" d="M61.9713 337.022L55.2822 327.082H37.6721V346.963H55.2822L61.9713 337.022Z" fill="white"/>
<path id="Subtract_4" fill-rule="evenodd" clip-rule="evenodd" d="M60.3931 327H75.0582C87.7167 328.072 108.312 337.674 108.312 363.538L107.833 430.526H84.0218L84.1586 419.167C76.4267 427.082 54.4626 438.845 32.9775 425.12C24.539 419.729 17.078 406.714 21.1401 389.266C27.1616 363.402 64.3618 361.212 84.0679 365.112C85.4135 358.749 82.6994 346.213 60.2563 346.98L67.0987 336.99L60.3931 327ZM78.0253 383.132C63.7387 382.982 50.7148 382.845 45.8187 389.95C42.0326 396.336 41.987 409.314 59.1153 411.298C68.7175 411.64 85.0942 407.946 84.3415 383.176C82.2234 383.176 80.1109 383.154 78.0253 383.132Z" fill="white"/>
</g>
</g>
</g>
</svg>
